<svg version="1.2" xmlns="http://www.w3.org/2000/svg" viewBox="0 0 157 225" width="157" height="225"><style>.a{fill:#1d1d1b}</style><rect class="a" x="146.6" y="59" width="9.9" height="133.9" rx="-4"></rect><rect class="a" x="13.5" y="59" width="9.9" height="108.1" rx="-4"></rect><path class="a" d="m156.3 185.9c1.2 1.7 0.8 4.1-0.9 5.3l-1.9 1.4c-1.7 1.2-4 0.8-5.2-0.9l-61.3-85.3c-1.2-1.7-0.8-4.1 0.9-5.3l1.9-1.4c1.7-1.2 4.1-0.8 5.3 0.9z"/><path class="a" d="m9.5 222.6c-1.2 1.6-3.5 2.1-5.2 0.9l-2-1.4c-1.6-1.2-2-3.6-0.9-5.3l111.9-158.4c1.2-1.6 3.6-2 5.3-0.9l1.9 1.4c1.7 1.2 2.1 3.6 0.9 5.3z"/><path class="a" d="m21.9 165.8c-1.2 1.7-3.5 2.1-5.2 0.9l-2-1.4c-1.6-1.2-2-3.5-0.9-5.2l112-158.5c1.2-1.7 3.6-2.1 5.2-0.9l2 1.4c1.7 1.2 2.1 3.5 0.9 5.2z"/></svg>